<?xml version="1.0" standalone="no"?>
<!DOCTYPE svg PUBLIC "-//W3C//DTD SVG 1.1//EN" "http://www.w3.org/Graphics/SVG/1.1/DTD/svg11.dtd" >
<svg>
<metadata>
Created by FontForge 20090622 at Thu Apr 13 08:58:25 2017
 By deploy user
&#194;&#169; 1989, 2002 Adobe Systems Incorporated. All rights reserved. &#194;&#169; 1981, 2002 Heidelberger Druckmaschinen AG. All rights reserved.
</metadata>
<defs>
<font id="TradeGothicLTStd-Cn18" horiz-adv-x="444" >
  <font-face 
    font-family="Trade Gothic LT Std"
    font-weight="400"
    font-stretch="condensed"
    units-per-em="1000"
    panose-1="2 11 6 6 2 5 2 2 2 4"
    ascent="722"
    descent="-278"
    x-height="520"
    cap-height="722"
    bbox="-30 -216 1000 950"
    underline-thickness="50"
    underline-position="-50"
    unicode-range="U+0020-U+2122"
  />
<missing-glyph horiz-adv-x="500" 
d="M0 0v700h500v-700h-500zM250 395l170 255h-340zM280 350l170 -255v510zM80 50h340l-170 255zM50 605v-510l170 255z" />
    <glyph glyph-name="f_i" unicode="fi" 
d="M307 0v520h72v-520h-72zM307 638v84h72v-84h-72zM2 460v60h80v106q0 54 24.5 80t81.5 26q22 0 56 -6v-56q-17 8 -39 8q-51 0 -51 -55v-103h84v-60h-84v-460h-72v460h-80z" />
    <glyph glyph-name="f_l" unicode="fl" 
d="M307 0v722h72v-722h-72zM2 460v60h80v106q0 54 24.5 80t81.5 26q22 0 56 -6v-56q-17 8 -39 8q-51 0 -51 -55v-103h84v-60h-84v-460h-72v460h-80z" />
    <glyph glyph-name=".notdef" horiz-adv-x="500" 
d="M0 0v700h500v-700h-500zM250 395l170 255h-340zM280 350l170 -255v510zM80 50h340l-170 255zM50 605v-510l170 255z" />
    <glyph glyph-name=".null" horiz-adv-x="0" 
 />
    <glyph glyph-name="nonmarkingreturn" horiz-adv-x="333" 
 />
    <glyph glyph-name="space" unicode=" " horiz-adv-x="222" 
 />
    <glyph glyph-name="exclam" unicode="!" horiz-adv-x="333" 
d="M124 94h84v-94h-84v94zM140 214l-16 508h84l-16 -508h-52z" />
    <glyph glyph-name="quotedbl" unicode="&#x22;" horiz-adv-x="333" 
d="M199 466v256h62v-256h-62zM72 466v256h62v-256h-62z" />
    <glyph glyph-name="numbersign" unicode="#" 
d="M402 283v-56h-84l-25 -227h-59l25 227h-99l-25 -227h-59l26 227h-84v56h90l18 156h-83v56h88l26 227h58l-25 -227h99l25 227h59l-26 -227h79v-56h-84l-18 -156h78zM283 439h-99l-18 -156h100z" />
    <glyph glyph-name="dollar" unicode="$" 
d="M242 320v-260q42 4 67 35.5t25 80.5q0 43 -24 76.5t-68 67.5zM192 442v220q-34 -7 -55 -35t-21 -66q0 -62 76 -119zM38 198h72q3 -116 82 -138v294q-35 23 -55 39t-45 41.5t-36.5 54.5t-11.5 64q0 68 41 114.5t107 54.5v96h50v-96q72 -10 111 -62t41 -130h-72
q-3 46 -22.5 83t-57.5 49v-255q40 -27 60 -42.5t49 -45t42 -64t13 -76.5q0 -76 -45 -124t-119 -55v-116h-50v116q-74 11 -114 64.5t-40 133.5z" />
    <glyph glyph-name="percent" unicode="%" horiz-adv-x="778" 
d="M384 156q0 64 45 110t111 46t111 -46t45 -110t-45 -110t-111 -46t-111 46t-45 110zM444 156q0 -39 27.5 -67.5t68.5 -28.5t68.5 28.5t27.5 67.5t-27.5 67.5t-68.5 28.5t-68.5 -28.5t-27.5 -67.5zM46 566q0 64 45 110t111 46t111 -46t45 -110t-45 -110t-111 -46t-111 46
t-45 110zM106 566q0 -39 27.5 -67.5t68.5 -28.5t68.5 28.5t27.5 67.5t-27.5 67.5t-68.5 28.5t-68.5 -28.5t-27.5 -67.5zM554 732h58l-414 -742h-58z" />
    <glyph glyph-name="ampersand" unicode="&#x26;" horiz-adv-x="556" 
d="M122 180q0 -57 31.5 -90.5t89.5 -33.5q29 0 56 17t45 43q-82 97 -146 219q-31 -32 -53.5 -74t-22.5 -81zM190 585q0 -11 1 -22t3 -23l4 -19q2 -7 7 -20.5t6 -17t7.5 -19.5t6.5 -17q41 46 61 83t20 82q0 26 -16 46t-36 20q-64 0 -64 -93zM412 350l70 -4q-9 -122 -50 -214
q34 -40 88 -78l-42 -54q-47 22 -90 68q-64 -78 -153 -78q-85 0 -135 49.5t-50 134.5q0 25 6.5 50t13.5 42t24 40l24 32q7 9 27.5 30.5t23.5 25.5q-51 107 -51 185q0 74 35.5 113.5t90.5 39.5q59 0 96.5 -37t37.5 -89q0 -47 -21 -90t-41.5 -65t-64.5 -64q55 -113 129 -199
q23 59 32 162z" />
    <glyph glyph-name="quotesingle" unicode="'" horiz-adv-x="222" 
d="M80 466v256h62v-256h-62z" />
    <glyph glyph-name="parenleft" unicode="(" horiz-adv-x="278" 
d="M238 -80l-48 -30q-65 102 -94.5 201t-29.5 220t29.5 220t94.5 201l48 -30q-106 -191 -106 -391t106 -391z" />
    <glyph glyph-name="parenright" unicode=")" horiz-adv-x="278" 
d="M40 702l48 30q65 -102 94.5 -201t29.5 -220t-29.5 -220t-94.5 -201l-48 30q106 191 106 391t-106 391z" />
    <glyph glyph-name="asterisk" unicode="*" 
d="M255 722l-20 -158l144 70l20 -66l-154 -32l114 -112l-58 -44l-79 138l-79 -138l-58 44l114 112l-154 32l20 66l144 -70l-20 158h66z" />
    <glyph glyph-name="plus" unicode="+" horiz-adv-x="600" 
d="M267 293v227h66v-227h227v-66h-227v-227h-66v227h-227v66h227z" />
    <glyph glyph-name="comma" unicode="," horiz-adv-x="222" 
d="M69 94h84v-100l-60 -144h-30l46 150h-40v94z" />
    <glyph glyph-name="hyphen" unicode="-" horiz-adv-x="333" 
d="M289 227h-246v66h246v-66z" />
    <glyph glyph-name="period" unicode="." horiz-adv-x="222" 
d="M69 94h84v-94h-84v94z" />
    <glyph glyph-name="slash" unicode="/" horiz-adv-x="278" 
d="M56 -10h-66l232 742h66z" />
    <glyph glyph-name="zero" unicode="0" 
d="M324 361q0 171 -25 241t-77 70t-77 -70t-25 -241t25 -241t77 -70t77 70t25 241zM396 361q0 -194 -42.5 -282.5t-131.5 -88.5t-131.5 88.5t-42.5 282.5t42.5 282.5t131.5 88.5t131.5 -88.5t42.5 -282.5z" />
    <glyph glyph-name="one" unicode="1" 
d="M350 0h-244v60h88v580l-90 -8v44q67 16 114 56h48v-672h84v-60z" />
    <glyph glyph-name="two" unicode="2" 
d="M388 0h-340v60q17 58 51.5 117t69.5 105l68 90q33 45 54 92.5t21 93.5q0 55 -24.5 84.5t-62.5 29.5q-45 0 -73 -37t-32 -115h-66q10 212 169 212q73 0 117 -48t44 -136q0 -62 -28 -118t-65.5 -98t-89.5 -116t-87 -156h274v-60z" />
    <glyph glyph-name="three" unicode="3" 
d="M126 570l-66 8q6 68 43.5 111t103.5 43t113.5 -45.5t47.5 -130.5q0 -73 -26.5 -117.5t-67.5 -52.5v-2q106 -35 106 -180q0 -105 -51 -159.5t-125 -54.5q-71 0 -116 51.5t-46 130.5h66q9 -122 104 -122q39 0 67.5 40.5t28.5 110.5q0 87 -38 120t-126 33v60q84 0 118 28.5
t34 109.5q0 120 -84 120q-43 0 -63.5 -29.5t-22.5 -72.5z" />
    <glyph glyph-name="four" unicode="4" 
d="M253 656l-161 -432h163v432h-2zM222 722h105v-498h75v-60h-75v-164h-72v164h-231v34z" />
    <glyph glyph-name="five" unicode="5" 
d="M56 162l66 6q14 -118 92 -118q48 0 78 49t30 140q0 177 -99 177q-30 0 -56 -20t-35 -50l-56 10l24 366h254l-6 -60h-190l-14 -220q40 34 96 34q67 0 110.5 -61t43.5 -174q0 -119 -50 -185t-126 -66q-74 0 -115.5 48.5t-46.5 123.5z" />
    <glyph glyph-name="six" unicode="6" 
d="M376 592l-66 -4q-12 84 -78 84q-103 0 -106 -289q51 55 111 55q67 0 111 -53.5t44 -168.5q0 -105 -42 -165.5t-113 -60.5q-98 0 -141.5 72t-43.5 260q0 410 182 410q66 0 98.5 -36t43.5 -104zM124 316v-68q0 -106 26 -152t76 -46q94 0 94 167q0 161 -90 161
q-60 0 -106 -62z" />
    <glyph glyph-name="seven" unicode="7" 
d="M60 662v60h324v-38l-210 -684h-76l210 662h-248z" />
    <glyph glyph-name="eight" unicode="8" 
d="M328 179q0 53 -27.5 91t-78.5 76q-51 -38 -78.5 -76t-27.5 -91q0 -50 27.5 -89.5t78.5 -39.5t78.5 39.5t27.5 89.5zM312 578q0 38 -23 66t-67 28t-67 -28t-23 -66q0 -105 90 -160q90 55 90 160zM400 182q0 -81 -48.5 -136.5t-129.5 -55.5t-129.5 55.5t-48.5 136.5
q0 120 116 202q-51 41 -75.5 83t-24.5 103q0 70 47 116t115 46t115 -46t47 -116q0 -61 -24.5 -103t-75.5 -83q116 -82 116 -202z" />
    <glyph glyph-name="nine" unicode="9" 
d="M68 130l66 4q12 -84 78 -84q103 0 106 289q-51 -55 -111 -55q-67 0 -111 53.5t-44 168.5q0 105 42 165.5t113 60.5q98 0 141.5 -72t43.5 -260q0 -410 -182 -410q-66 0 -98.5 36t-43.5 104zM320 406v68q0 106 -26 152t-76 46q-94 0 -94 -167q0 -161 90 -161q60 0 106 62z
" />
    <glyph glyph-name="colon" unicode=":" horiz-adv-x="222" 
d="M69 366h84v-94h-84v94zM69 94h84v-94h-84v94z" />
    <glyph glyph-name="semicolon" unicode=";" horiz-adv-x="222" 
d="M69 366h84v-94h-84v94zM69 94h84v-100l-60 -144h-30l46 150h-40v94z" />
    <glyph glyph-name="less" unicode="&#x3c;" horiz-adv-x="600" 
d="M560 72v-69l-520 232v50l520 232v-69l-422 -188z" />
    <glyph glyph-name="equal" unicode="=" horiz-adv-x="600" 
d="M40 334v66h520v-66h-520zM40 120v66h520v-66h-520z" />
    <glyph glyph-name="greater" unicode="&#x3e;" horiz-adv-x="600" 
d="M40 3v69l422 188l-422 188v69l520 -232v-50z" />
    <glyph glyph-name="question" unicode="?" horiz-adv-x="389" 
d="M111 94h84v-94h-84v94zM187 214h-56v50q0 52 19 98t42 74.5t42 71.5t19 90q0 36 -17.5 55t-40.5 19q-30 0 -49 -26.5t-22 -59.5l-60 12q5 59 40.5 96.5t93.5 37.5q54 0 90.5 -35t36.5 -99q0 -46 -14 -85.5t-35 -66.5l-40 -55q-21 -27 -35 -62t-14 -75v-40z" />
    <glyph glyph-name="at" unicode="@" horiz-adv-x="800" 
d="M349 204q61 0 108 72.5t47 139.5q0 36 -25 65t-56 29q-65 0 -111.5 -69t-46.5 -140q0 -43 23.5 -70t60.5 -27zM535 496l22 62h63l-86 -282q-10 -32 -10 -54q0 -25 22 -25q53 0 100.5 72t47.5 152q0 114 -81.5 184.5t-195.5 70.5q-130 0 -217.5 -92t-87.5 -221
q0 -135 90 -226t220 -91q71 0 138 32t108 87h63q-48 -81 -131.5 -128t-179.5 -47q-158 0 -266 108.5t-108 264.5q0 153 108.5 261t261.5 108q140 0 239 -87t99 -219q0 -120 -77.5 -204t-155.5 -84q-27 0 -44.5 17t-20.5 49l-2 -1q-59 -65 -122 -65t-103 45.5t-40 110.5
q0 108 66.5 194t167.5 86q79 0 112 -78z" />
    <glyph glyph-name="A" unicode="A" 
d="M221 668l-80 -388h162l-80 388h-2zM168 722h108l159 -722h-78l-43 214h-184l-43 -214h-78z" />
    <glyph glyph-name="B" unicode="B" horiz-adv-x="500" 
d="M66 0v722h192q80 0 125 -48.5t45 -129.5q0 -58 -27 -101t-83 -59v-2q63 -17 94.5 -64.5t31.5 -117.5q0 -101 -57 -150.5t-175 -49.5h-146zM144 346v-280h78q144 0 144 134q0 73 -34.5 109.5t-109.5 36.5h-78zM144 656v-244h44q86 0 124 30t38 102q0 61 -29.5 86.5
t-98.5 25.5h-78z" />
    <glyph glyph-name="C" unicode="C" horiz-adv-x="500" 
d="M440 504h-78q-14 162 -107 162q-69 0 -100 -69.5t-31 -235.5t31 -235.5t100 -69.5q57 0 86.5 43.5t30.5 140.5h78q-2 -120 -52.5 -185t-142.5 -65q-102 0 -155.5 87t-53.5 284t53.5 284t155.5 87q167 0 185 -228z" />
    <glyph glyph-name="D" unicode="D" horiz-adv-x="500" 
d="M144 656v-590h42q46 0 77 11.5t55.5 43t36 90.5t11.5 150t-11.5 150t-36 90.5t-55.5 43t-77 11.5h-42zM66 0v722h134q59 0 102.5 -18t76 -58.5t49 -111.5t16.5 -173t-16.5 -173t-49 -111.5t-76 -58.5t-102.5 -18h-134z" />
    <glyph glyph-name="E" unicode="E" 
d="M66 722h330v-66h-252v-246h186v-66h-186v-278h264v-66h-342v722z" />
    <glyph glyph-name="F" unicode="F" horiz-adv-x="389" 
d="M66 0v722h310v-66h-232v-246h174v-66h-174v-344h-78z" />
    <glyph glyph-name="G" unicode="G" horiz-adv-x="500" 
d="M444 500h-78q-11 166 -113 166q-67 0 -98 -69.5t-31 -235.5t31 -235.5t98 -69.5q55 0 84 29.5t29 84.5v102h-98v66h176v-338h-50l-10 54q-48 -64 -131 -64q-100 0 -153.5 87t-53.5 284t53.5 284t153.5 87q48 0 84 -19.5t58 -53.5t33.5 -73t15.5 -86z" />
    <glyph glyph-name="H" unicode="H" horiz-adv-x="500" 
d="M66 722h78v-312h212v312h78v-722h-78v344h-212v-344h-78v722z" />
    <glyph glyph-name="I" unicode="I" horiz-adv-x="222" 
d="M72 722h78v-722h-78v722z" />
    <glyph glyph-name="J" unicode="J" horiz-adv-x="278" 
d="M134 722h78v-542q0 -109 -40 -149.5t-138 -40.5q-10 0 -40 6l6 68q22 -8 45 -8q48 0 68.5 24t20.5 82v560z" />
    <glyph glyph-name="K" unicode="K" 
d="M56 722h78v-368h2l202 368h84l-140 -252l166 -470h-84l-134 390h-2l-94 -168v-222h-78v722z" />
    <glyph glyph-name="L" unicode="L" horiz-adv-x="389" 
d="M66 722h78v-656h234v-66h-312v722z" />
    <glyph glyph-name="M" unicode="M" horiz-adv-x="611" 
d="M56 722h124l126 -546h2l123 546h124v-722h-72v662h-2l-150 -662h-51l-150 662h-2v-662h-72v722z" />
    <glyph glyph-name="N" unicode="N" horiz-adv-x="500" 
d="M56 722h122l186 -532h2v532h78v-722h-84l-224 628h-2v-628h-78v722z" />
    <glyph glyph-name="O" unicode="O" horiz-adv-x="500" 
d="M376 361q0 117 -17.5 187t-44 94t-64.5 24t-64.5 -24t-44 -94t-17.5 -187t17.5 -187t44 -94t64.5 -24t64.5 24t44 94t17.5 187zM454 361q0 -371 -204 -371t-204 371t204 371t204 -371z" />
    <glyph glyph-name="P" unicode="P" 
d="M56 0v722h170q87 0 139.5 -54t52.5 -144t-52.5 -144t-139.5 -54h-92v-326h-78zM134 656v-264h82q124 0 124 132t-124 132h-82z" />
    <glyph glyph-name="Q" unicode="Q" horiz-adv-x="500" 
d="M266 140v64q47 -13 84 -59q26 70 26 216q0 117 -17.5 187t-44 94t-64.5 24t-64.5 -24t-44 -94t-17.5 -187t17.5 -187t44 -94t64.5 -24q43 0 70 32q-23 32 -54 52zM474 12v-68q-71 4 -118 82q-43 -36 -106 -36q-204 0 -204 371t204 371t204 -371q0 -194 -56 -286
q37 -60 76 -63z" />
    <glyph glyph-name="R" unicode="R" horiz-adv-x="500" 
d="M144 656v-250h68q81 0 114.5 31t33.5 94t-33.5 94t-114.5 31h-68zM66 0v722h174q89 0 143.5 -49.5t54.5 -137.5q0 -136 -116 -177l122 -358h-82l-116 342l-102 -4v-338h-78z" />
    <glyph glyph-name="S" unicode="S" 
d="M396 536h-72q-11 130 -111 130q-45 0 -72 -26.5t-27 -68.5q0 -44 30 -80.5t72.5 -64t85 -58.5t72.5 -80.5t30 -113.5q0 -87 -48 -135.5t-137 -48.5q-84 0 -132.5 56t-50.5 148h72q2 -65 32 -101.5t87 -36.5q50 0 78.5 31t28.5 88q0 38 -21.5 71.5t-53.5 56.5l-70 51
q-38 28 -70 54t-53.5 67t-21.5 89q0 76 48 122t126 46q79 0 126.5 -51t51.5 -145z" />
    <glyph glyph-name="T" unicode="T" horiz-adv-x="389" 
d="M7 722h374v-66h-148v-656h-78v656h-148v66z" />
    <glyph glyph-name="U" unicode="U" horiz-adv-x="500" 
d="M66 722h78v-530q0 -136 106 -136t106 136v530h78v-532q0 -92 -45.5 -146t-138.5 -54t-138.5 54t-45.5 146v532z" />
    <glyph glyph-name="V" unicode="V" 
d="M16 722h78l127 -572h2l127 572h78l-170 -722h-72z" />
    <glyph glyph-name="W" unicode="W" horiz-adv-x="611" 
d="M6 722h72l86 -564h2l108 564h64l112 -564h2l80 564h72l-116 -722h-66l-114 567h-2l-114 -567h-66z" />
    <glyph glyph-name="X" unicode="X" 
d="M20 722h84l110 -256l102 256h84l-142 -338l172 -384h-84l-132 302l-116 -302h-84l156 384z" />
    <glyph glyph-name="Y" unicode="Y" 
d="M16 722h84l124 -316l120 316h84l-166 -416v-306h-78v306z" />
    <glyph glyph-name="Z" unicode="Z" 
d="M68 722h332v-54l-268 -602h268v-66h-356v56l260 600h-236v66z" />
    <glyph glyph-name="bracketleft" unicode="[" horiz-adv-x="278" 
d="M60 -100v822h184v-40h-118v-742h118v-40h-184z" />
    <glyph glyph-name="backslash" unicode="\" horiz-adv-x="278" 
d="M288 -10h-66l-232 742h66z" />
    <glyph glyph-name="bracketright" unicode="]" horiz-adv-x="278" 
d="M218 722v-822h-184v40h118v742h-118v40h184z" />
    <glyph glyph-name="asciicircum" unicode="^" horiz-adv-x="600" 
d="M62 295l210 427h56l210 -427h-72l-166 342l-166 -342h-72z" />
    <glyph glyph-name="underscore" unicode="_" horiz-adv-x="500" 
d="M500 -125h-500v50h500v-50z" />
    <glyph glyph-name="grave" unicode="`" horiz-adv-x="222" 
d="M118 578l-126 138h78l98 -138h-50z" />
    <glyph glyph-name="a" unicode="a" 
d="M128 368l-66 10q11 67 50 109.5t104 42.5q71 0 110 -39t39 -109v-290q0 -72 13 -92h-75l-9 44q-22 -22 -54.5 -38t-56.5 -16q-61 0 -98 36.5t-37 97.5q0 46 23 84t61 63.5t78 42.5t83 26v37q0 43 -20.5 68t-54.5 25q-38 0 -60.5 -30.5t-29.5 -71.5zM293 104v176
q-29 -9 -55.5 -21t-55 -30.5t-45.5 -44t-17 -54.5q0 -80 74 -80q47 0 99 54z" />
    <glyph glyph-name="b" unicode="b" 
d="M138 50l-16 -50h-56q12 45 12 140v582h72v-240q48 48 96 48q67 0 108.5 -64.5t41.5 -205.5t-41.5 -205.5t-108.5 -64.5q-66 0 -108 60zM150 424v-324q16 -22 37.5 -36t38.5 -14q48 0 73 48t25 162q0 115 -24 162.5t-72 47.5q-32 0 -78 -46z" />
    <glyph glyph-name="c" unicode="c" horiz-adv-x="389" 
d="M346 366h-70q-9 104 -82 104q-48 0 -67.5 -43t-19.5 -167t19.5 -167t67.5 -43q36 0 55.5 24.5t28.5 89.5h70q-9 -80 -47.5 -127t-106.5 -47q-82 0 -120.5 65t-38.5 205t38.5 205t120.5 65q129 0 152 -164z" />
    <glyph glyph-name="d" unicode="d" 
d="M310 0l-3 50h-2q-41 -60 -107 -60q-67 0 -108.5 64.5t-41.5 205.5t41.5 205.5t108.5 64.5q48 0 96 -48v240h72v-582q0 -95 12 -140h-68zM294 100v324q-46 46 -78 46q-48 0 -72 -47.5t-24 -162.5q0 -114 25 -162t73 -48q17 0 38.5 14t37.5 36z" />
    <glyph glyph-name="e" unicode="e" horiz-adv-x="389" 
d="M107 308h174q-2 87 -21 124.5t-66 37.5q-42 0 -64 -37t-23 -125zM353 248h-246v-29q0 -94 22.5 -131.5t74.5 -37.5q68 0 87 98l68 -8q-9 -62 -53 -106t-112 -44q-82 0 -120.5 65t-38.5 205t38.5 205t120.5 65q80 0 119.5 -65.5t39.5 -182.5v-34z" />
    <glyph glyph-name="f" unicode="f" horiz-adv-x="278" 
d="M18 460v60h80v106q0 54 24.5 80t81.5 26q22 0 56 -6v-56q-17 8 -39 8q-51 0 -51 -55v-103h84v-60h-84v-460h-72v460h-80z" />
    <glyph glyph-name="g" unicode="g" 
d="M336 -42q0 14 -8.5 24t-28.5 17.5t-33.5 11.5t-43 9.5t-38.5 7.5q-70 -30 -70 -71q0 -34 28.5 -53.5t85.5 -19.5q108 0 108 74zM140 345q0 -131 76 -131t76 131t-76 131t-76 -131zM408 530v-66q-8 2 -21 2q-23 0 -45 -20q16 -51 16 -100q0 -93 -38.5 -139.5t-101.5 -46.5
q-8 0 -24 2t-24 2q-12 -3 -24 -12t-12 -22q0 -8 3 -14t10.5 -10.5t15 -7.5t20 -6t23.5 -5l26 -5l28 -5q68 -15 105 -41t37 -84q0 -52 -48 -87t-128 -35q-87 0 -132.5 30t-45.5 82q0 34 20 61.5t56 42.5q-25 8 -40.5 26.5t-15.5 43.5q0 28 20 46t48 23q-29 21 -45.5 63.5
t-16.5 85.5q0 92 41 144t110 52q28 0 55.5 -12.5t39.5 -35.5q27 48 88 48z" />
    <glyph glyph-name="h" unicode="h" 
d="M72 0v722h72v-259q23 27 56 47t58 20q114 0 114 -136v-394h-72v384q0 86 -57 86q-48 0 -99 -64v-406h-72z" />
    <glyph glyph-name="i" unicode="i" horiz-adv-x="222" 
d="M75 0v520h72v-520h-72zM75 638v84h72v-84h-72z" />
    <glyph glyph-name="j" unicode="j" horiz-adv-x="222" 
d="M4 -166v60q18 -4 24 -4q50 0 50 64v566h72v-572q0 -63 -25.5 -90.5t-80.5 -27.5q-12 0 -40 4zM78 638v84h72v-84h-72z" />
    <glyph glyph-name="k" unicode="k" horiz-adv-x="389" 
d="M66 0v722h72v-456h2l138 254h74l-96 -166l120 -354h-74l-94 282h-2l-68 -128v-154h-72z" />
    <glyph glyph-name="l" unicode="l" horiz-adv-x="222" 
d="M75 0v722h72v-722h-72z" />
    <glyph glyph-name="m" unicode="m" horiz-adv-x="667" 
d="M152 0h-72v520h66v-57q57 67 121 67q31 0 57 -18.5t36 -47.5q60 66 121 66q50 0 77.5 -32t27.5 -88v-410h-72v400q0 40 -12.5 55t-41.5 15q-8 0 -16 -1.5t-13.5 -3.5t-12.5 -7l-12 -6q-3 -2 -10.5 -9t-9.5 -9l-9 -9q-8 -8 -8 -9v-416h-72v400q0 39 -13.5 54.5t-43.5 15.5
q-20 0 -38.5 -10t-27 -18.5t-22.5 -25.5v-416z" />
    <glyph glyph-name="n" unicode="n" 
d="M72 0v520h68v-57q27 28 60.5 47.5t57.5 19.5q114 0 114 -136v-394h-72v384q0 86 -57 86q-48 0 -99 -64v-406h-72z" />
    <glyph glyph-name="o" unicode="o" horiz-adv-x="389" 
d="M107 260q0 -124 19.5 -167t67.5 -43t67.5 43t19.5 167t-19.5 167t-67.5 43t-67.5 -43t-19.5 -167zM35 260q0 140 38.5 205t120.5 65t120.5 -65t38.5 -205t-38.5 -205t-120.5 -65t-120.5 65t-38.5 205z" />
    <glyph glyph-name="p" unicode="p" 
d="M138 520v-50h2q39 60 106 60t108.5 -64.5t41.5 -205.5t-41.5 -205.5t-108.5 -64.5q-48 0 -96 48v-208h-72v690h60zM150 420v-324q46 -46 78 -46q48 0 72 47.5t24 162.5q0 114 -25 162t-73 48q-17 0 -38.5 -14t-37.5 -36z" />
    <glyph glyph-name="q" unicode="q" 
d="M306 470v50h60v-690h-72v208q-48 -48 -96 -48q-67 0 -108.5 64.5t-41.5 205.5t41.5 205.5t108.5 64.5t106 -60h2zM294 96v324q-16 22 -37.5 36t-38.5 14q-48 0 -73 -48t-25 -162q0 -115 24 -162.5t72 -47.5q32 0 78 46z" />
    <glyph glyph-name="r" unicode="r" horiz-adv-x="278" 
d="M66 0v520h72v-63h2q31 45 58.5 59t73.5 14v-68q-44 0 -75 -19.5t-59 -72.5v-370h-72z" />
    <glyph glyph-name="s" unicode="s" horiz-adv-x="389" 
d="M334 406l-60 -18q-11 40 -30.5 61t-59.5 21q-25 0 -41.5 -18t-16.5 -44q0 -29 22.5 -53t55.5 -43l64 -42q33 -21 55.5 -56t22.5 -80q0 -62 -40.5 -103t-101.5 -41q-68 0 -107 35t-59 103l66 14q30 -92 95 -92q30 0 52.5 23.5t22.5 55.5q0 33 -22.5 59.5t-55.5 45.5
l-64 41q-33 21 -55.5 54t-22.5 75q0 52 38.5 89t96.5 37q118 0 145 -124z" />
    <glyph glyph-name="t" unicode="t" horiz-adv-x="278" 
d="M8 460v60h70v174h72v-174h96v-60h-96v-364q0 -52 52 -52q14 0 44 10v-54q-33 -10 -68 -10q-52 0 -76 26.5t-24 85.5v358h-70z" />
    <glyph glyph-name="u" unicode="u" 
d="M372 520v-520h-68v57q-27 -28 -60.5 -47.5t-57.5 -19.5q-114 0 -114 136v394h72v-384q0 -86 57 -86q48 0 99 64v406h72z" />
    <glyph glyph-name="v" unicode="v" horiz-adv-x="389" 
d="M18 520h72l104 -448h2l102 448h72l-128 -520h-96z" />
    <glyph glyph-name="w" unicode="w" horiz-adv-x="556" 
d="M18 520h68l74 -382h2l84 382h68l86 -382h2l68 382h68l-108 -520h-60l-90 404h-2l-90 -404h-60z" />
    <glyph glyph-name="x" unicode="x" horiz-adv-x="333" 
d="M121 270l-120 250h74l86 -182l76 182h74l-112 -250l132 -270h-74l-94 204l-88 -204h-74z" />
    <glyph glyph-name="y" unicode="y" horiz-adv-x="333" 
d="M2 520h74l98 -398h2l80 398h74l-119 -509q-43 -181 -164 -181h-37v60h22q86 0 108 114z" />
    <glyph glyph-name="z" unicode="z" horiz-adv-x="333" 
d="M39 460v60h270v-48l-206 -412h206v-60h-286v54l200 406h-184z" />
    <glyph glyph-name="braceleft" unicode="{" horiz-adv-x="278" 
d="M16 291v40q31 0 44.5 18.5t13.5 65.5v221q0 47 25.5 71.5t68.5 24.5h64v-40h-52q-40 0 -40 -52v-235q0 -43 -22.5 -66t-53.5 -27v-2q31 -4 53.5 -27t22.5 -66v-235q0 -52 40 -52h52v-40h-64q-43 0 -68.5 24.5t-25.5 71.5v221q0 47 -13.5 65.5t-44.5 18.5z" />
    <glyph glyph-name="bar" unicode="|" horiz-adv-x="222" 
d="M78 -10v742h66v-742h-66z" />
    <glyph glyph-name="braceright" unicode="}" horiz-adv-x="278" 
d="M262 331v-40q-31 0 -44.5 -18.5t-13.5 -65.5v-221q0 -47 -25.5 -71.5t-68.5 -24.5h-64v40h52q40 0 40 52v235q0 43 22.5 66t53.5 27v2q-31 4 -53.5 27t-22.5 66v235q0 52 -40 52h-52v40h64q43 0 68.5 -24.5t25.5 -71.5v-221q0 -47 13.5 -65.5t44.5 -18.5z" />
    <glyph glyph-name="asciitilde" unicode="~" horiz-adv-x="600" 
d="M502 331l38 -50q-51 -88 -131 -88q-42 0 -115 33q-83 35 -105 35q-27 0 -47.5 -18.5t-43.5 -53.5l-38 50q51 88 131 88q42 0 115 -33q83 -35 105 -35q27 0 47.5 18.5t43.5 53.5z" />
    <glyph glyph-name="uni00A0" unicode="&#xa0;" horiz-adv-x="222" 
 />
    <glyph glyph-name="exclamdown" unicode="&#xa1;" horiz-adv-x="333" 
d="M125 520h84v-94h-84v94zM193 306l16 -508h-84l16 508h52z" />
    <glyph glyph-name="cent" unicode="&#xa2;" 
d="M156 97l86 380q-9 3 -22 3q-48 0 -67.5 -43t-19.5 -167q0 -131 23 -173zM282 446l-86 -383q10 -3 24 -3q36 0 55.5 24.5t28.5 89.5h70q-9 -80 -47.5 -127t-106.5 -47q-23 0 -37 5l-27 -119h-48l31 136q-78 53 -78 248q0 140 38.5 205t120.5 65q18 0 35 -3l25 113h48
l-29 -130q59 -39 73 -144h-70q-4 46 -20 70z" />
    <glyph glyph-name="sterling" unicode="&#xa3;" 
d="M32 -10v68q86 40 86 176q0 8 -8 96h-78v60h66q-2 10 -8 37l-10 43q-4 15 -7 38t-3 43q0 90 41 135.5t104 45.5q157 0 169 -208h-66q-8 71 -29.5 109.5t-66.5 38.5q-40 0 -60 -25t-20 -85q0 -27 4.5 -55t12.5 -65t11 -52h106v-60h-94l4 -38q4 -29 4 -46q0 -74 -24 -130
q51 -58 98 -58q74 0 74 132h66q0 -113 -32 -156.5t-107 -43.5q-34 0 -69 22t-57 54q-48 -67 -107 -76z" />
    <glyph glyph-name="currency" unicode="&#xa4;" 
d="M438 185l-42 -42l-46 47q-48 -45 -128 -45t-128 45l-46 -47l-42 42l46 49q-20 20 -32 55.5t-12 71.5t12 71.5t32 55.5l-46 49l42 42l46 -47q48 45 128 45t128 -45l46 47l42 -42l-46 -49q20 -20 32 -55.5t12 -71.5t-12 -71.5t-32 -55.5zM78 361q0 -66 40 -109t104 -43
t104 43t40 109t-40 109t-104 43t-104 -43t-40 -109z" />
    <glyph glyph-name="yen" unicode="&#xa5;" 
d="M419 298v-60h-160v-238h-72v238h-160v60h160v8l-34 84h-126v60h102l-110 272h72l133 -332l129 332h72l-108 -272h102v-60h-126l-34 -84v-8h160z" />
    <glyph glyph-name="brokenbar" unicode="&#xa6;" horiz-adv-x="222" 
d="M78 -10v284h66v-284h-66zM78 448v284h66v-284h-66z" />
    <glyph glyph-name="section" unicode="&#xa7;" horiz-adv-x="500" 
d="M392 652l-48 -38q-17 25 -43 44.5t-51 19.5q-64 0 -64 -59q0 -24 26 -56.5t62 -66.5l74 -68q36 -36 62 -77t26 -78q0 -50 -31.5 -79.5t-80.5 -29.5q60 -70 60 -127q0 -52 -36.5 -86.5t-88.5 -34.5q-97 0 -161 84l48 38q17 -30 47 -49t64 -19q25 0 43 19.5t18 44.5
q0 28 -26 63t-64 70l-74 71q-38 37 -64 80t-26 83q0 44 34.5 71.5t81.5 27.5q-60 58 -60 126q0 44 33 75t89 31q81 0 150 -80zM130 396q0 -36 72.5 -113t114.5 -77q22 0 37.5 18t15.5 41q0 42 -71 117.5t-111 75.5q-28 0 -43 -17t-15 -45z" />
    <glyph glyph-name="dieresis" unicode="&#xa8;" horiz-adv-x="222" 
d="M12 588v102h66v-102h-66zM144 588v102h66v-102h-66z" />
    <glyph glyph-name="copyright" unicode="&#xa9;" horiz-adv-x="800" 
d="M401 -10q-155 0 -265 107.5t-110 264.5q0 156 110 263t265 107q154 0 263.5 -107t109.5 -263q0 -157 -109.5 -264.5t-263.5 -107.5zM401 50q128 0 214.5 89.5t86.5 222.5q0 131 -87 220.5t-214 89.5q-129 0 -216 -89.5t-87 -220.5q0 -133 87 -222.5t216 -89.5zM534 290
h64q-16 -72 -66.5 -115.5t-118.5 -43.5q-99 0 -160 66t-61 165q0 101 59 165t159 64q73 0 124.5 -40.5t62.5 -112.5h-63q-8 41 -41.5 67t-81.5 26q-70 0 -108.5 -47t-38.5 -120q0 -72 41 -122.5t108 -50.5q49 0 81.5 27.5t39.5 71.5z" />
    <glyph glyph-name="ordfeminine" unicode="&#xaa;" horiz-adv-x="266" 
d="M76 635l-46 6q7 40 32 65.5t67 25.5q47 0 72 -23.5t25 -65.5v-174q0 -44 8 -55h-52l-6 18q-21 -24 -68 -24q-40 0 -64 22.5t-24 61.5q0 52 47 84t105 46v18q0 48 -42 48q-45 0 -54 -53zM172 484v90q-37 -12 -67.5 -33.5t-30.5 -48.5q0 -22 9.5 -31t31.5 -9q37 0 57 32z
" />
    <glyph glyph-name="guillemotleft" unicode="&#xab;" horiz-adv-x="500" 
d="M418 106h-68l-124 154l124 154h68l-128 -154zM274 106h-68l-124 154l124 154h68l-128 -154z" />
    <glyph glyph-name="logicalnot" unicode="&#xac;" horiz-adv-x="600" 
d="M494 120v214h-454v66h520v-280h-66z" />
    <glyph glyph-name="uni00AD" unicode="&#xad;" horiz-adv-x="333" 
d="M289 227h-246v66h246v-66z" />
    <glyph glyph-name="registered" unicode="&#xae;" horiz-adv-x="800" 
d="M325 332v-190h-66v434h165q150 0 150 -123q0 -54 -29.5 -83t-75.5 -36l117 -192h-79l-115 190h-67zM325 520v-132h72q63 0 87 13t24 55q0 33 -22 48.5t-73 15.5h-88zM401 -10q-155 0 -265 107.5t-110 264.5q0 156 110 263t265 107q154 0 263.5 -107t109.5 -263
q0 -157 -109.5 -264.5t-263.5 -107.5zM401 50q128 0 214.5 89.5t86.5 222.5q0 131 -87 220.5t-214 89.5q-129 0 -216 -89.5t-87 -220.5q0 -133 87 -222.5t216 -89.5z" />
    <glyph glyph-name="macron" unicode="&#xaf;" horiz-adv-x="222" 
d="M244 614h-266v48h266v-48z" />
    <glyph glyph-name="degree" unicode="&#xb0;" horiz-adv-x="400" 
d="M296 584q0 42 -27.5 72t-68.5 30t-68.5 -30t-27.5 -72t27.5 -72t68.5 -30t68.5 30t27.5 72zM52 584q0 61 43.5 104.5t104.5 43.5t104.5 -43.5t43.5 -104.5t-43.5 -104.5t-104.5 -43.5t-104.5 43.5t-43.5 104.5z" />
    <glyph glyph-name="plusminus" unicode="&#xb1;" horiz-adv-x="600" 
d="M267 350v170h66v-170h227v-66h-227v-170h-66v170h-227v66h227zM40 0v66h520v-66h-520z" />
    <glyph glyph-name="uni00B2" unicode="&#xb2;" horiz-adv-x="266" 
d="M244 292h-222v50q17 48 58.5 102.5t71.5 98.5t30 81q0 56 -44 56q-27 0 -42.5 -16.5t-19.5 -58.5h-50q8 127 111 127q48 0 76.5 -28t28.5 -79q0 -38 -19 -76.5t-44 -67t-54 -67t-43 -70.5h162v-52z" />
    <glyph glyph-name="uni00B3" unicode="&#xb3;" horiz-adv-x="266" 
d="M84 636h-54q0 43 24 69.5t71 26.5q43 0 73 -27t30 -78q0 -86 -60 -101v-2q68 -22 68 -109q0 -65 -30 -97t-79 -32q-52 0 -80.5 30t-28.5 80h54q4 -58 56 -58t52 76q0 44 -23 62.5t-73 19.5v52h5q43 0 63 15q20 16 20 61q0 56 -44 56q-24 0 -33.5 -10.5t-10.5 -33.5z" />
    <glyph glyph-name="acute" unicode="&#xb4;" horiz-adv-x="222" 
d="M230 716l-126 -138h-50l98 138h78z" />
    <glyph glyph-name="uni00B5" unicode="&#xb5;" 
d="M372 520v-520h-68v57q-27 -28 -60.5 -47.5t-57.5 -19.5t-42 6v-166h-72v690h72v-384q0 -86 57 -86q48 0 99 64v406h72z" />
    <glyph glyph-name="paragraph" unicode="&#xb6;" horiz-adv-x="500" 
d="M215 -84v424q-91 0 -147.5 53t-56.5 135q0 97 61 145.5t149 48.5h281v-54h-70v-752h-66v752h-85v-752h-66z" />
    <glyph glyph-name="periodcentered" unicode="&#xb7;" horiz-adv-x="222" 
d="M62 260q0 20 14.5 34.5t34.5 14.5t34.5 -14.5t14.5 -34.5t-14.5 -34.5t-34.5 -14.5t-34.5 14.5t-14.5 34.5z" />
    <glyph glyph-name="cedilla" unicode="&#xb8;" horiz-adv-x="222" 
d="M8 -200l14 44q37 -14 65 -14q30 0 48.5 11.5t18.5 29.5t-14.5 30.5t-39.5 12.5q-16 0 -42 -10l-14 14l60 82h38l-46 -58l2 -2q10 6 31 6q33 0 56 -19t23 -53q0 -40 -31.5 -65t-76.5 -25q-56 0 -92 16z" />
    <glyph glyph-name="uni00B9" unicode="&#xb9;" horiz-adv-x="266" 
d="M54 292v48h46v328l-48 -4v36q36 8 67 32h43v-392h52v-48h-160z" />
    <glyph glyph-name="ordmasculine" unicode="&#xba;" horiz-adv-x="233" 
d="M163 570q0 68 -10.5 92t-37.5 24q-26 0 -36 -24t-10 -92t10 -92t36 -24q27 0 37.5 24t10.5 92zM13 570q0 85 24.5 123.5t77.5 38.5q54 0 79 -39t25 -123t-25 -123t-79 -39q-53 0 -77.5 38.5t-24.5 123.5z" />
    <glyph glyph-name="guillemotright" unicode="&#xbb;" horiz-adv-x="500" 
d="M150 106h-68l128 154l-128 154h68l124 -154zM294 106h-68l128 154l-128 154h68l124 -154z" />
    <glyph glyph-name="onequarter" unicode="&#xbc;" horiz-adv-x="666" 
d="M70 292v48h46v328l-48 -4v36q36 8 67 32h43v-392h52v-48h-160zM520 355l-81 -207h83v207h-2zM503 433h75v-285h50v-52h-50v-96h-56v96h-139v45zM153 -10h-62l439 742h62z" />
    <glyph glyph-name="onehalf" unicode="&#xbd;" horiz-adv-x="666" 
d="M640 0h-222v50q17 48 58.5 102.5t71.5 98.5t30 81q0 56 -44 56q-27 0 -42.5 -16.5t-19.5 -58.5h-50q8 127 111 127q48 0 76.5 -28t28.5 -79q0 -38 -19 -76.5t-44 -67t-54 -67t-43 -70.5h162v-52zM70 292v48h46v328l-48 -4v36q36 8 67 32h43v-392h52v-48h-160zM149 -10
h-62l439 742h62z" />
    <glyph glyph-name="threequarters" unicode="&#xbe;" horiz-adv-x="666" 
d="M104 636h-54q0 43 24 69.5t71 26.5q43 0 73 -27t30 -78q0 -86 -60 -101v-2q68 -22 68 -109q0 -65 -30 -97t-79 -32q-52 0 -80.5 30t-28.5 80h54q4 -58 56 -58t52 76q0 44 -23 62.5t-73 19.5v52h5q43 0 63 15q20 16 20 61q0 56 -44 56q-24 0 -33.5 -10.5t-10.5 -33.5z
M520 355l-81 -207h83v207h-2zM503 433h75v-285h50v-52h-50v-96h-56v96h-139v45zM149 -10h-62l439 742h62z" />
    <glyph glyph-name="questiondown" unicode="&#xbf;" horiz-adv-x="389" 
d="M194 520h84v-94h-84v94zM202 306h56v-50q0 -52 -19 -98t-42 -74.5t-42 -71.5t-19 -90q0 -36 17.5 -55t40.5 -19q30 0 49 26.5t22 59.5l60 -12q-5 -59 -40.5 -96.5t-93.5 -37.5q-54 0 -90.5 35t-36.5 99q0 46 14 85.5t34 66.5l42 55q20 27 34 62t14 75v40z" />
    <glyph glyph-name="Agrave" unicode="&#xc0;" 
d="M229 760l-126 138h78l98 -138h-50zM221 668l-80 -388h162l-80 388h-2zM168 722h108l159 -722h-78l-43 214h-184l-43 -214h-78z" />
    <glyph glyph-name="Aacute" unicode="&#xc1;" 
d="M341 898l-126 -138h-50l98 138h78zM221 668l-80 -388h162l-80 388h-2zM168 722h108l159 -722h-78l-43 214h-184l-43 -214h-78z" />
    <glyph glyph-name="Acircumflex" unicode="&#xc2;" 
d="M87 760l101 138h68l101 -138h-64l-71 102l-71 -102h-64zM221 668l-80 -388h162l-80 388h-2zM168 722h108l159 -722h-78l-43 214h-184l-43 -214h-78z" />
    <glyph glyph-name="Atilde" unicode="&#xc3;" 
d="M117 770h-36q1 36 22.5 67t54.5 31q27 0 71 -22t60 -22q32 0 38 50h36q-6 -98 -78 -98q-22 0 -66 22t-62 22q-36 0 -40 -50zM221 668l-80 -388h162l-80 388h-2zM168 722h108l159 -722h-78l-43 214h-184l-43 -214h-78z" />
    <glyph glyph-name="Adieresis" unicode="&#xc4;" 
d="M123 770v102h66v-102h-66zM255 770v102h66v-102h-66zM221 668l-80 -388h162l-80 388h-2zM168 722h108l159 -722h-78l-43 214h-184l-43 -214h-78z" />
    <glyph glyph-name="Aring" unicode="&#xc5;" 
d="M221 668l-80 -388h162l-80 388h-2zM168 722h108l159 -722h-78l-43 214h-184l-43 -214h-78zM127 855q0 39 27.5 67t67.5 28t67.5 -28t27.5 -67t-27.5 -67t-67.5 -28t-67.5 28t-27.5 67zM169 855q0 -21 16 -37t37 -16t37 16t16 37t-16 37t-37 16t-37 -16t-16 -37z" />
    <glyph glyph-name="AE" unicode="&#xc6;" horiz-adv-x="722" 
d="M299 722h375v-66h-238v-246h186v-66h-186v-278h250v-66h-328v214h-184l-82 -214h-83zM200 280h158v398h-2z" />
    <glyph glyph-name="Ccedilla" unicode="&#xc7;" horiz-adv-x="500" 
d="M440 504h-78q-14 162 -107 162q-69 0 -100 -69.5t-31 -235.5t31 -235.5t100 -69.5q57 0 86.5 43.5t30.5 140.5h78q-1 -114 -47 -178t-129 -71l-39 -49l2 -2q11 6 31 6q34 0 56.5 -19t22.5 -53q0 -40 -31.5 -65t-76.5 -25q-56 0 -92 16l14 44q37 -14 65 -14
q30 0 48.5 11.5t18.5 29.5t-14.5 30.5t-39.5 12.5q-16 0 -42 -10l-14 14l53 73q-190 14 -190 370q0 197 53.5 284t155.5 87q167 0 185 -228z" />
    <glyph glyph-name="Egrave" unicode="&#xc8;" 
d="M235 760l-126 138h78l98 -138h-50zM66 722h330v-66h-252v-246h186v-66h-186v-278h264v-66h-342v722z" />
    <glyph glyph-name="Eacute" unicode="&#xc9;" 
d="M347 898l-126 -138h-50l98 138h78zM66 722h330v-66h-252v-246h186v-66h-186v-278h264v-66h-342v722z" />
    <glyph glyph-name="Ecircumflex" unicode="&#xca;" 
d="M93 760l101 138h68l101 -138h-64l-71 102l-71 -102h-64zM66 722h330v-66h-252v-246h186v-66h-186v-278h264v-66h-342v722z" />
    <glyph glyph-name="Edieresis" unicode="&#xcb;" 
d="M129 770v102h66v-102h-66zM261 770v102h66v-102h-66zM66 722h330v-66h-252v-246h186v-66h-186v-278h264v-66h-342v722z" />
    <glyph glyph-name="Igrave" unicode="&#xcc;" horiz-adv-x="222" 
d="M118 760l-126 138h78l98 -138h-50zM72 722h78v-722h-78v722z" />
    <glyph glyph-name="Iacute" unicode="&#xcd;" horiz-adv-x="222" 
d="M230 898l-126 -138h-50l98 138h78zM72 722h78v-722h-78v722z" />
    <glyph glyph-name="Icircumflex" unicode="&#xce;" horiz-adv-x="222" 
d="M-24 760l101 138h68l101 -138h-64l-71 102l-71 -102h-64zM72 722h78v-722h-78v722z" />
    <glyph glyph-name="Idieresis" unicode="&#xcf;" horiz-adv-x="222" 
d="M12 770v102h66v-102h-66zM144 770v102h66v-102h-66zM72 722h78v-722h-78v722z" />
    <glyph glyph-name="Eth" unicode="&#xd0;" horiz-adv-x="500" 
d="M144 410h120v-66h-120v-278h42q46 0 77 11.5t55.5 43t36 90.5t11.5 150t-11.5 150t-36 90.5t-55.5 43t-77 11.5h-42v-246zM12 410h54v312h134q59 0 102.5 -18t76 -58.5t49 -111.5t16.5 -173t-16.5 -173t-49 -111.5t-76 -58.5t-102.5 -18h-134v344h-54v66z" />
    <glyph glyph-name="Ntilde" unicode="&#xd1;" horiz-adv-x="500" 
d="M145 770h-36q1 36 22.5 67t54.5 31q27 0 71 -22t60 -22q32 0 38 50h36q-6 -98 -78 -98q-22 0 -66 22t-62 22q-36 0 -40 -50zM56 722h122l186 -532h2v532h78v-722h-84l-224 628h-2v-628h-78v722z" />
    <glyph glyph-name="Ograve" unicode="&#xd2;" horiz-adv-x="500" 
d="M257 760l-126 138h78l98 -138h-50zM376 361q0 117 -17.5 187t-44 94t-64.5 24t-64.5 -24t-44 -94t-17.5 -187t17.5 -187t44 -94t64.5 -24t64.5 24t44 94t17.5 187zM454 361q0 -371 -204 -371t-204 371t204 371t204 -371z" />
    <glyph glyph-name="Oacute" unicode="&#xd3;" horiz-adv-x="500" 
d="M369 898l-126 -138h-50l98 138h78zM376 361q0 117 -17.5 187t-44 94t-64.5 24t-64.5 -24t-44 -94t-17.5 -187t17.5 -187t44 -94t64.5 -24t64.5 24t44 94t17.5 187zM454 361q0 -371 -204 -371t-204 371t204 371t204 -371z" />
    <glyph glyph-name="Ocircumflex" unicode="&#xd4;" horiz-adv-x="500" 
d="M115 760l101 138h68l101 -138h-64l-71 102l-71 -102h-64zM376 361q0 117 -17.5 187t-44 94t-64.5 24t-64.5 -24t-44 -94t-17.5 -187t17.5 -187t44 -94t64.5 -24t64.5 24t44 94t17.5 187zM454 361q0 -371 -204 -371t-204 371t204 371t204 -371z" />
    <glyph glyph-name="Otilde" unicode="&#xd5;" horiz-adv-x="500" 
d="M145 770h-36q1 36 22.5 67t54.5 31q27 0 71 -22t60 -22q32 0 38 50h36q-6 -98 -78 -98q-22 0 -66 22t-62 22q-36 0 -40 -50zM376 361q0 117 -17.5 187t-44 94t-64.5 24t-64.5 -24t-44 -94t-17.5 -187t17.5 -187t44 -94t64.5 -24t64.5 24t44 94t17.5 187zM454 361
q0 -371 -204 -371t-204 371t204 371t204 -371z" />
    <glyph glyph-name="Odieresis" unicode="&#xd6;" horiz-adv-x="500" 
d="M151 770v102h66v-102h-66zM283 770v102h66v-102h-66zM376 361q0 117 -17.5 187t-44 94t-64.5 24t-64.5 -24t-44 -94t-17.5 -187t17.5 -187t44 -94t64.5 -24t64.5 24t44 94t17.5 187zM454 361q0 -371 -204 -371t-204 371t204 371t204 -371z" />
    <glyph glyph-name="multiply" unicode="&#xd7;" horiz-adv-x="600" 
d="M560 472l-212 -212l212 -212l-48 -48l-212 213l-212 -213l-48 48l212 212l-212 212l48 48l212 -213l212 213z" />
    <glyph glyph-name="Oslash" unicode="&#xd8;" horiz-adv-x="500" 
d="M354 564l-183 -464q29 -44 79 -44q38 0 64.5 24t44 94t17.5 187q0 125 -20 203h-2zM145 167l181 460q-30 39 -76 39q-38 0 -64.5 -24t-44 -94t-17.5 -187q0 -124 19 -194h2zM142 28l-58 -148h-54l76 190q-60 93 -60 291q0 371 204 371q61 0 104 -34l42 106h54l-58 -148
q62 -94 62 -295q0 -371 -204 -371q-64 0 -108 38z" />
    <glyph glyph-name="Ugrave" unicode="&#xd9;" horiz-adv-x="500" 
d="M257 760l-126 138h78l98 -138h-50zM66 722h78v-530q0 -136 106 -136t106 136v530h78v-532q0 -92 -45.5 -146t-138.5 -54t-138.5 54t-45.5 146v532z" />
    <glyph glyph-name="Uacute" unicode="&#xda;" horiz-adv-x="500" 
d="M369 898l-126 -138h-50l98 138h78zM66 722h78v-530q0 -136 106 -136t106 136v530h78v-532q0 -92 -45.5 -146t-138.5 -54t-138.5 54t-45.5 146v532z" />
    <glyph glyph-name="Ucircumflex" unicode="&#xdb;" horiz-adv-x="500" 
d="M115 760l101 138h68l101 -138h-64l-71 102l-71 -102h-64zM66 722h78v-530q0 -136 106 -136t106 136v530h78v-532q0 -92 -45.5 -146t-138.5 -54t-138.5 54t-45.5 146v532z" />
    <glyph glyph-name="Udieresis" unicode="&#xdc;" horiz-adv-x="500" 
d="M151 770v102h66v-102h-66zM283 770v102h66v-102h-66zM66 722h78v-530q0 -136 106 -136t106 136v530h78v-532q0 -92 -45.5 -146t-138.5 -54t-138.5 54t-45.5 146v532z" />
    <glyph glyph-name="Yacute" unicode="&#xdd;" 
d="M341 898l-126 -138h-50l98 138h78zM16 722h84l124 -316l120 316h84l-166 -416v-306h-78v306z" />
    <glyph glyph-name="Thorn" unicode="&#xde;" 
d="M56 0v722h78v-162h92q87 0 139.5 -54t52.5 -144t-52.5 -144t-139.5 -54h-92v-164h-78zM134 494v-264h82q124 0 124 132t-124 132h-82z" />
    <glyph glyph-name="germandbls" unicode="&#xdf;" 
d="M72 0v580q0 62 39.5 107t106.5 45q73 0 116.5 -49.5t43.5 -132.5q0 -105 -72 -146q44 -22 70 -66t26 -132q0 -216 -137 -216q-28 0 -55 12v62q23 -14 49 -14q71 0 71 144q0 96 -24 135t-84 39v60q43 3 63.5 30.5t20.5 92.5q0 64 -23.5 92.5t-60.5 28.5q-34 0 -56 -25.5
t-22 -66.5v-580h-72z" />
    <glyph glyph-name="agrave" unicode="&#xe0;" 
d="M128 368l-66 10q11 67 50 109.5t104 42.5q71 0 110 -39t39 -109v-290q0 -72 13 -92h-75l-9 44q-22 -22 -54.5 -38t-56.5 -16q-61 0 -98 36.5t-37 97.5q0 46 23 84t61 63.5t78 42.5t83 26v37q0 43 -20.5 68t-54.5 25q-38 0 -60.5 -30.5t-29.5 -71.5zM293 104v176
q-29 -9 -55.5 -21t-55 -30.5t-45.5 -44t-17 -54.5q0 -80 74 -80q47 0 99 54zM229 578l-126 138h78l98 -138h-50z" />
    <glyph glyph-name="aacute" unicode="&#xe1;" 
d="M341 716l-126 -138h-50l98 138h78zM128 368l-66 10q11 67 50 109.5t104 42.5q71 0 110 -39t39 -109v-290q0 -72 13 -92h-75l-9 44q-22 -22 -54.5 -38t-56.5 -16q-61 0 -98 36.5t-37 97.5q0 46 23 84t61 63.5t78 42.5t83 26v37q0 43 -20.5 68t-54.5 25q-38 0 -60.5 -30.5
t-29.5 -71.5zM293 104v176q-29 -9 -55.5 -21t-55 -30.5t-45.5 -44t-17 -54.5q0 -80 74 -80q47 0 99 54z" />
    <glyph glyph-name="acircumflex" unicode="&#xe2;" 
d="M87 578l101 138h68l101 -138h-64l-71 102l-71 -102h-64zM128 368l-66 10q11 67 50 109.5t104 42.5q71 0 110 -39t39 -109v-290q0 -72 13 -92h-75l-9 44q-22 -22 -54.5 -38t-56.5 -16q-61 0 -98 36.5t-37 97.5q0 46 23 84t61 63.5t78 42.5t83 26v37q0 43 -20.5 68
t-54.5 25q-38 0 -60.5 -30.5t-29.5 -71.5zM293 104v176q-29 -9 -55.5 -21t-55 -30.5t-45.5 -44t-17 -54.5q0 -80 74 -80q47 0 99 54z" />
    <glyph glyph-name="atilde" unicode="&#xe3;" 
d="M117 588h-36q1 36 22.5 67t54.5 31q27 0 71 -22t60 -22q32 0 38 50h36q-6 -98 -78 -98q-22 0 -66 22t-62 22q-36 0 -40 -50zM128 368l-66 10q11 67 50 109.5t104 42.5q71 0 110 -39t39 -109v-290q0 -72 13 -92h-75l-9 44q-22 -22 -54.5 -38t-56.5 -16q-61 0 -98 36.5
t-37 97.5q0 46 23 84t61 63.5t78 42.5t83 26v37q0 43 -20.5 68t-54.5 25q-38 0 -60.5 -30.5t-29.5 -71.5zM293 104v176q-29 -9 -55.5 -21t-55 -30.5t-45.5 -44t-17 -54.5q0 -80 74 -80q47 0 99 54z" />
    <glyph glyph-name="adieresis" unicode="&#xe4;" 
d="M123 588v102h66v-102h-66zM255 588v102h66v-102h-66zM128 368l-66 10q11 67 50 109.5t104 42.5q71 0 110 -39t39 -109v-290q0 -72 13 -92h-75l-9 44q-22 -22 -54.5 -38t-56.5 -16q-61 0 -98 36.5t-37 97.5q0 46 23 84t61 63.5t78 42.5t83 26v37q0 43 -20.5 68t-54.5 25
q-38 0 -60.5 -30.5t-29.5 -71.5zM293 104v176q-29 -9 -55.5 -21t-55 -30.5t-45.5 -44t-17 -54.5q0 -80 74 -80q47 0 99 54z" />
    <glyph glyph-name="aring" unicode="&#xe5;" 
d="M128 368l-66 10q11 67 50 109.5t104 42.5q71 0 110 -39t39 -109v-290q0 -72 13 -92h-75l-9 44q-22 -22 -54.5 -38t-56.5 -16q-61 0 -98 36.5t-37 97.5q0 46 23 84t61 63.5t78 42.5t83 26v37q0 43 -20.5 68t-54.5 25q-38 0 -60.5 -30.5t-29.5 -71.5zM293 104v176
q-29 -9 -55.5 -21t-55 -30.5t-45.5 -44t-17 -54.5q0 -80 74 -80q47 0 99 54zM127 673q0 39 27.5 67t67.5 28t67.5 -28t27.5 -67t-27.5 -67t-67.5 -28t-67.5 28t-27.5 67zM169 673q0 -21 16 -37t37 -16t37 16t16 37t-16 37t-37 16t-37 -16t-16 -37z" />
    <glyph glyph-name="ae" unicode="&#xe6;" horiz-adv-x="611" 
d="M257 104v176q-155 -65 -155 -150q0 -80 74 -80q22 0 45 16t36 38zM329 308h174q-2 87 -21 124.5t-66 37.5q-38 0 -62 -40t-25 -122zM575 248h-246v-29q0 -87 29 -128t68 -41q68 0 87 98l68 -8q-9 -62 -51.5 -106t-104.5 -44q-93 0 -130 71q-65 -71 -130 -71
q-61 0 -98 36.5t-37 97.5q0 45 22.5 83.5t59.5 64.5t72.5 42t72.5 26v37q0 46 -18 69.5t-49 23.5q-29 0 -51 -31.5t-29 -70.5l-66 10q11 67 50 109.5t103 42.5q72 0 106 -64q45 64 113 64q80 0 119.5 -65.5t39.5 -182.5v-34z" />
    <glyph glyph-name="ccedilla" unicode="&#xe7;" horiz-adv-x="389" 
d="M346 366h-70q-9 104 -82 104q-48 0 -67.5 -43t-19.5 -167t19.5 -167t67.5 -43q36 0 55.5 24.5t28.5 89.5h70q-19 -155 -128 -172l-40 -50l2 -2q10 6 31 6q33 0 56 -19t23 -53q0 -40 -31.5 -65t-76.5 -25q-56 0 -92 16l14 44q37 -14 65 -14q30 0 48.5 11.5t18.5 29.5
t-14.5 30.5t-39.5 12.5q-16 0 -42 -10l-14 14l53 72q-75 5 -110.5 70t-35.5 200q0 140 38.5 205t120.5 65q129 0 152 -164z" />
    <glyph glyph-name="egrave" unicode="&#xe8;" horiz-adv-x="389" 
d="M107 308h174q-2 87 -21 124.5t-66 37.5q-42 0 -64 -37t-23 -125zM353 248h-246v-29q0 -94 22.5 -131.5t74.5 -37.5q68 0 87 98l68 -8q-9 -62 -53 -106t-112 -44q-82 0 -120.5 65t-38.5 205t38.5 205t120.5 65q80 0 119.5 -65.5t39.5 -182.5v-34zM202 578l-126 138h78
l98 -138h-50z" />
    <glyph glyph-name="eacute" unicode="&#xe9;" horiz-adv-x="389" 
d="M314 716l-126 -138h-50l98 138h78zM107 308h174q-2 87 -21 124.5t-66 37.5q-42 0 -64 -37t-23 -125zM353 248h-246v-29q0 -94 22.5 -131.5t74.5 -37.5q68 0 87 98l68 -8q-9 -62 -53 -106t-112 -44q-82 0 -120.5 65t-38.5 205t38.5 205t120.5 65q80 0 119.5 -65.5
t39.5 -182.5v-34z" />
    <glyph glyph-name="ecircumflex" unicode="&#xea;" horiz-adv-x="389" 
d="M60 578l101 138h68l101 -138h-64l-71 102l-71 -102h-64zM107 308h174q-2 87 -21 124.5t-66 37.5q-42 0 -64 -37t-23 -125zM353 248h-246v-29q0 -94 22.5 -131.5t74.5 -37.5q68 0 87 98l68 -8q-9 -62 -53 -106t-112 -44q-82 0 -120.5 65t-38.5 205t38.5 205t120.5 65
q80 0 119.5 -65.5t39.5 -182.5v-34z" />
    <glyph glyph-name="edieresis" unicode="&#xeb;" horiz-adv-x="389" 
d="M96 588v102h66v-102h-66zM228 588v102h66v-102h-66zM107 308h174q-2 87 -21 124.5t-66 37.5q-42 0 -64 -37t-23 -125zM353 248h-246v-29q0 -94 22.5 -131.5t74.5 -37.5q68 0 87 98l68 -8q-9 -62 -53 -106t-112 -44q-82 0 -120.5 65t-38.5 205t38.5 205t120.5 65
q80 0 119.5 -65.5t39.5 -182.5v-34z" />
    <glyph glyph-name="igrave" unicode="&#xec;" horiz-adv-x="222" 
d="M118 578l-126 138h78l98 -138h-50zM75 0v520h72v-520h-72z" />
    <glyph glyph-name="iacute" unicode="&#xed;" horiz-adv-x="222" 
d="M230 716l-126 -138h-50l98 138h78zM75 0v520h72v-520h-72z" />
    <glyph glyph-name="icircumflex" unicode="&#xee;" horiz-adv-x="222" 
d="M-24 578l101 138h68l101 -138h-64l-71 102l-71 -102h-64zM75 0v520h72v-520h-72z" />
    <glyph glyph-name="idieresis" unicode="&#xef;" horiz-adv-x="222" 
d="M12 588v102h66v-102h-66zM144 588v102h66v-102h-66zM75 0v520h72v-520h-72z" />
    <glyph glyph-name="eth" unicode="&#xf0;" horiz-adv-x="389" 
d="M107 260q0 -124 19.5 -167t67.5 -43t67.5 43t19.5 167t-19.5 167t-67.5 43t-67.5 -43t-19.5 -167zM132 700l66 22q29 -27 47 -53l98 37l24 -46l-93 -35q79 -139 79 -365q0 -140 -38.5 -205t-120.5 -65t-120.5 65t-38.5 205t38.5 205t120.5 65q34 0 49 -9q-10 39 -33 79
l-91 -34l-24 46l85 32q-22 31 -48 56z" />
    <glyph glyph-name="ntilde" unicode="&#xf1;" 
d="M117 588h-36q1 36 22.5 67t54.5 31q27 0 71 -22t60 -22q32 0 38 50h36q-6 -98 -78 -98q-22 0 -66 22t-62 22q-36 0 -40 -50zM72 0v520h68v-57q27 28 60.5 47.5t57.5 19.5q114 0 114 -136v-394h-72v384q0 86 -57 86q-48 0 -99 -64v-406h-72z" />
    <glyph glyph-name="ograve" unicode="&#xf2;" horiz-adv-x="389" 
d="M107 260q0 -124 19.5 -167t67.5 -43t67.5 43t19.5 167t-19.5 167t-67.5 43t-67.5 -43t-19.5 -167zM35 260q0 140 38.5 205t120.5 65t120.5 -65t38.5 -205t-38.5 -205t-120.5 -65t-120.5 65t-38.5 205zM202 578l-126 138h78l98 -138h-50z" />
    <glyph glyph-name="oacute" unicode="&#xf3;" horiz-adv-x="389" 
d="M314 716l-126 -138h-50l98 138h78zM107 260q0 -124 19.5 -167t67.5 -43t67.5 43t19.5 167t-19.5 167t-67.5 43t-67.5 -43t-19.5 -167zM35 260q0 140 38.5 205t120.5 65t120.5 -65t38.5 -205t-38.5 -205t-120.5 -65t-120.5 65t-38.5 205z" />
    <glyph glyph-name="ocircumflex" unicode="&#xf4;" horiz-adv-x="389" 
d="M60 578l101 138h68l101 -138h-64l-71 102l-71 -102h-64zM107 260q0 -124 19.5 -167t67.5 -43t67.5 43t19.5 167t-19.5 167t-67.5 43t-67.5 -43t-19.5 -167zM35 260q0 140 38.5 205t120.5 65t120.5 -65t38.5 -205t-38.5 -205t-120.5 -65t-120.5 65t-38.5 205z" />
    <glyph glyph-name="otilde" unicode="&#xf5;" horiz-adv-x="389" 
d="M90 588h-36q1 36 22.5 67t54.5 31q27 0 71 -22t60 -22q32 0 38 50h36q-6 -98 -78 -98q-22 0 -66 22t-62 22q-36 0 -40 -50zM107 260q0 -124 19.5 -167t67.5 -43t67.5 43t19.5 167t-19.5 167t-67.5 43t-67.5 -43t-19.5 -167zM35 260q0 140 38.5 205t120.5 65t120.5 -65
t38.5 -205t-38.5 -205t-120.5 -65t-120.5 65t-38.5 205z" />
    <glyph glyph-name="odieresis" unicode="&#xf6;" horiz-adv-x="389" 
d="M96 588v102h66v-102h-66zM228 588v102h66v-102h-66zM107 260q0 -124 19.5 -167t67.5 -43t67.5 43t19.5 167t-19.5 167t-67.5 43t-67.5 -43t-19.5 -167zM35 260q0 140 38.5 205t120.5 65t120.5 -65t38.5 -205t-38.5 -205t-120.5 -65t-120.5 65t-38.5 205z" />
    <glyph glyph-name="divide" unicode="&#xf7;" horiz-adv-x="600" 
d="M560 227h-520v66h520v-66zM234 464q0 27 19.5 46.5t46.5 19.5t46.5 -19.5t19.5 -46.5t-19.5 -46.5t-46.5 -19.5t-46.5 19.5t-19.5 46.5zM234 56q0 27 19.5 46.5t46.5 19.5t46.5 -19.5t19.5 -46.5t-19.5 -46.5t-46.5 -19.5t-46.5 19.5t-19.5 46.5z" />
    <glyph glyph-name="oslash" unicode="&#xf8;" horiz-adv-x="389" 
d="M118 124l128 327q-18 19 -52 19q-48 0 -67.5 -43t-19.5 -167q0 -90 9 -136h2zM367 630l-61 -154q47 -63 47 -216q0 -140 -38.5 -205t-120.5 -65q-44 0 -72 18l-51 -128h-50l63 159q-49 64 -49 221q0 140 38.5 205t120.5 65q47 0 76 -20l47 120h50zM271 389l-126 -322
q16 -17 49 -17q48 0 67.5 43t19.5 167q0 83 -8 129h-2z" />
    <glyph glyph-name="ugrave" unicode="&#xf9;" 
d="M372 520v-520h-68v57q-27 -28 -60.5 -47.5t-57.5 -19.5q-114 0 -114 136v394h72v-384q0 -86 57 -86q48 0 99 64v406h72zM229 578l-126 138h78l98 -138h-50z" />
    <glyph glyph-name="uacute" unicode="&#xfa;" 
d="M341 716l-126 -138h-50l98 138h78zM372 520v-520h-68v57q-27 -28 -60.5 -47.5t-57.5 -19.5q-114 0 -114 136v394h72v-384q0 -86 57 -86q48 0 99 64v406h72z" />
    <glyph glyph-name="ucircumflex" unicode="&#xfb;" 
d="M87 578l101 138h68l101 -138h-64l-71 102l-71 -102h-64zM372 520v-520h-68v57q-27 -28 -60.5 -47.5t-57.5 -19.5q-114 0 -114 136v394h72v-384q0 -86 57 -86q48 0 99 64v406h72z" />
    <glyph glyph-name="udieresis" unicode="&#xfc;" 
d="M123 588v102h66v-102h-66zM255 588v102h66v-102h-66zM372 520v-520h-68v57q-27 -28 -60.5 -47.5t-57.5 -19.5q-114 0 -114 136v394h72v-384q0 -86 57 -86q48 0 99 64v406h72z" />
    <glyph glyph-name="yacute" unicode="&#xfd;" horiz-adv-x="333" 
d="M286 716l-126 -138h-50l98 138h78zM2 520h74l98 -398h2l80 398h74l-119 -509q-43 -181 -164 -181h-37v60h22q86 0 108 114z" />
    <glyph glyph-name="thorn" unicode="&#xfe;" 
d="M146 722v-240h2q38 48 98 48q67 0 108.5 -64.5t41.5 -205.5t-41.5 -205.5t-108.5 -64.5q-48 0 -96 48v-208h-72v892h68zM150 420v-324q46 -46 78 -46q48 0 72 47.5t24 162.5q0 114 -25 162t-73 48q-17 0 -38.5 -14t-37.5 -36z" />
    <glyph glyph-name="ydieresis" unicode="&#xff;" horiz-adv-x="333" 
d="M68 588v102h66v-102h-66zM200 588v102h66v-102h-66zM2 520h74l98 -398h2l80 398h74l-119 -509q-43 -181 -164 -181h-37v60h22q86 0 108 114z" />
    <glyph glyph-name="OE" unicode="&#x152;" horiz-adv-x="722" 
d="M440 344v-278h246v-66h-386q-96 0 -151.5 30.5t-84 110t-28.5 220.5t28.5 220.5t84 110t151.5 30.5h374v-66h-234v-246h178v-66h-178zM362 168v386q0 58 -20.5 79t-71.5 21q-78 0 -117 -64t-39 -229t39 -229t117 -64q51 0 71.5 21t20.5 79z" />
    <glyph glyph-name="oe" unicode="&#x153;" horiz-adv-x="611" 
d="M95 260q0 -124 19.5 -167t67.5 -43t68.5 43t20.5 167t-20.5 167t-68.5 43t-67.5 -43t-19.5 -167zM343 308h162q-2 87 -21 124.5t-66 37.5q-70 0 -75 -162zM577 248h-234v-29q0 -89 23.5 -129t61.5 -40q70 0 85 98l68 -8q-7 -61 -49.5 -105.5t-104.5 -44.5q-84 0 -122 81
q-32 -81 -123 -81q-82 0 -120.5 65t-38.5 205t38.5 205t120.5 65q94 0 126 -88q38 88 110 88q80 0 119.5 -65.5t39.5 -182.5v-34z" />
    <glyph glyph-name="Ydieresis" unicode="&#x178;" 
d="M123 770v102h66v-102h-66zM255 770v102h66v-102h-66zM16 722h84l124 -316l120 316h84l-166 -416v-306h-78v306z" />
    <glyph glyph-name="circumflex" unicode="&#x2c6;" horiz-adv-x="222" 
d="M-24 578l101 138h68l101 -138h-64l-71 102l-71 -102h-64z" />
    <glyph glyph-name="tilde" unicode="&#x2dc;" horiz-adv-x="222" 
d="M6 588h-36q1 36 22.5 67t54.5 31q27 0 71 -22t60 -22q32 0 38 50h36q-6 -98 -78 -98q-22 0 -66 22t-62 22q-36 0 -40 -50z" />
    <glyph glyph-name="uni2000" unicode="&#x2000;" horiz-adv-x="475" 
 />
    <glyph glyph-name="uni2001" unicode="&#x2001;" horiz-adv-x="950" 
 />
    <glyph glyph-name="uni2002" unicode="&#x2002;" horiz-adv-x="475" 
 />
    <glyph glyph-name="uni2003" unicode="&#x2003;" horiz-adv-x="950" 
 />
    <glyph glyph-name="uni2004" unicode="&#x2004;" horiz-adv-x="316" 
 />
    <glyph glyph-name="uni2005" unicode="&#x2005;" horiz-adv-x="237" 
 />
    <glyph glyph-name="uni2006" unicode="&#x2006;" horiz-adv-x="158" 
 />
    <glyph glyph-name="uni2007" unicode="&#x2007;" horiz-adv-x="158" 
 />
    <glyph glyph-name="uni2008" unicode="&#x2008;" horiz-adv-x="118" 
 />
    <glyph glyph-name="uni2009" unicode="&#x2009;" horiz-adv-x="190" 
 />
    <glyph glyph-name="uni200A" unicode="&#x200a;" horiz-adv-x="52" 
 />
    <glyph glyph-name="uni2010" unicode="&#x2010;" horiz-adv-x="333" 
d="M289 227h-246v66h246v-66z" />
    <glyph glyph-name="uni2011" unicode="&#x2011;" horiz-adv-x="333" 
d="M289 227h-246v66h246v-66z" />
    <glyph glyph-name="endash" unicode="&#x2013;" horiz-adv-x="500" 
d="M500 236h-500v48h500v-48z" />
    <glyph glyph-name="emdash" unicode="&#x2014;" horiz-adv-x="1000" 
d="M1000 236h-1000v48h1000v-48z" />
    <glyph glyph-name="quoteleft" unicode="&#x2018;" horiz-adv-x="222" 
d="M156 488h-84v100l60 144h30l-46 -150h40v-94z" />
    <glyph glyph-name="quoteright" unicode="&#x2019;" horiz-adv-x="222" 
d="M66 722h84v-100l-60 -144h-30l46 150h-40v94z" />
    <glyph glyph-name="quotesinglbase" unicode="&#x201a;" horiz-adv-x="222" 
d="M66 94h84v-100l-60 -144h-30l46 150h-40v94z" />
    <glyph glyph-name="quotedblleft" unicode="&#x201c;" horiz-adv-x="389" 
d="M156 488h-84v100l60 144h30l-46 -150h40v-94zM323 488h-84v100l60 144h30l-46 -150h40v-94z" />
    <glyph glyph-name="quotedblright" unicode="&#x201d;" horiz-adv-x="389" 
d="M233 722h84v-100l-60 -144h-30l46 150h-40v94zM66 722h84v-100l-60 -144h-30l46 150h-40v94z" />
    <glyph glyph-name="quotedblbase" unicode="&#x201e;" horiz-adv-x="389" 
d="M233 94h84v-100l-60 -144h-30l46 150h-40v94zM66 94h84v-100l-60 -144h-30l46 150h-40v94z" />
    <glyph glyph-name="bullet" unicode="&#x2022;" horiz-adv-x="500" 
d="M69 361q0 75 52.5 127.5t127.5 52.5t128 -52.5t53 -127.5t-53 -128t-128 -53t-127.5 53t-52.5 128z" />
    <glyph glyph-name="ellipsis" unicode="&#x2026;" horiz-adv-x="1000" 
d="M791 94h84v-94h-84v94zM458 94h84v-94h-84v94zM125 94h84v-94h-84v94z" />
    <glyph glyph-name="uni202F" unicode="&#x202f;" horiz-adv-x="190" 
 />
    <glyph glyph-name="perthousand" unicode="&#x2030;" horiz-adv-x="1000" 
d="M20 574q0 59 44.5 103.5t103.5 44.5t103.5 -44.5t44.5 -103.5t-44.5 -103.5t-103.5 -44.5t-103.5 44.5t-44.5 103.5zM76 574q0 -37 26.5 -64.5t65.5 -27.5t65.5 27.5t26.5 64.5t-26.5 64.5t-65.5 27.5t-65.5 -27.5t-26.5 -64.5zM328 148q0 59 44.5 103.5t103.5 44.5
t103.5 -44.5t44.5 -103.5t-44.5 -103.5t-103.5 -44.5t-103.5 44.5t-44.5 103.5zM384 148q0 -37 26.5 -64.5t65.5 -27.5t65.5 27.5t26.5 64.5t-26.5 64.5t-65.5 27.5t-65.5 -27.5t-26.5 -64.5zM684 148q0 59 44.5 103.5t103.5 44.5t103.5 -44.5t44.5 -103.5t-44.5 -103.5
t-103.5 -44.5t-103.5 44.5t-44.5 103.5zM740 148q0 -37 26.5 -64.5t65.5 -27.5t65.5 27.5t26.5 64.5t-26.5 64.5t-65.5 27.5t-65.5 -27.5t-26.5 -64.5zM500 732h58l-414 -742h-58z" />
    <glyph glyph-name="guilsinglleft" unicode="&#x2039;" horiz-adv-x="333" 
d="M264 106h-68l-124 154l124 154h68l-128 -154z" />
    <glyph glyph-name="guilsinglright" unicode="&#x203a;" horiz-adv-x="333" 
d="M137 106h-68l128 154l-128 154h68l124 -154z" />
    <glyph glyph-name="uni205F" unicode="&#x205f;" horiz-adv-x="237" 
 />
    <glyph glyph-name="Euro" unicode="&#x20ac;" 
d="M440 656l-20 -79q-34 44 -64 66.5t-72 22.5q-35 0 -60 -17t-38.5 -48.5t-20.5 -66t-9 -79.5h233l-15 -60h-220v-92h196l-15 -60h-178q7 -88 36.5 -137.5t97.5 -49.5q72 0 129 59v-77q-52 -48 -132 -48q-102 0 -149.5 66.5t-59.5 186.5h-64l15 60h45q-1 19 -1 58v34h-59
l15 60h47q4 60 16 106.5t35 87t63 62t95 21.5q92 0 154 -76z" />
    <glyph glyph-name="trademark" unicode="&#x2122;" horiz-adv-x="990" 
d="M372 722v-54h-134v-369h-66v369h-134v54h334zM506 656v-357h-66v423h105l126 -321l124 321h106v-423h-66v357h-2l-141 -357h-44l-139 357h-3z" />
    <glyph glyph-name="a.superior" horiz-adv-x="266" 
d="M76 635l-46 6q7 40 32 65.5t67 25.5q47 0 72 -23.5t25 -65.5v-174q0 -44 8 -55h-52l-6 18q-21 -24 -68 -24q-40 0 -64 22.5t-24 61.5q0 52 47 84t105 46v18q0 48 -42 48q-45 0 -54 -53zM172 484v90q-37 -12 -67.5 -33.5t-30.5 -48.5q0 -22 9.5 -31t31.5 -9q37 0 57 32z
" />
    <glyph glyph-name="o.superior" horiz-adv-x="233" 
d="M163 570q0 68 -10.5 92t-37.5 24q-26 0 -36 -24t-10 -92t10 -92t36 -24q27 0 37.5 24t10.5 92zM13 570q0 85 24.5 123.5t77.5 38.5q54 0 79 -39t25 -123t-25 -123t-79 -39q-53 0 -77.5 38.5t-24.5 123.5z" />
    <glyph glyph-name="one.superior" horiz-adv-x="266" 
d="M54 292v48h46v328l-48 -4v36q36 8 67 32h43v-392h52v-48h-160z" />
    <glyph glyph-name="two.superior" horiz-adv-x="266" 
d="M244 292h-222v50q17 48 58.5 102.5t71.5 98.5t30 81q0 56 -44 56q-27 0 -42.5 -16.5t-19.5 -58.5h-50q8 127 111 127q48 0 76.5 -28t28.5 -79q0 -38 -19 -76.5t-44 -67t-54 -67t-43 -70.5h162v-52z" />
    <glyph glyph-name="three.superior" horiz-adv-x="266" 
d="M84 636h-54q0 43 24 69.5t71 26.5q43 0 73 -27t30 -78q0 -86 -60 -101v-2q68 -22 68 -109q0 -65 -30 -97t-79 -32q-52 0 -80.5 30t-28.5 80h54q4 -58 56 -58t52 76q0 44 -23 62.5t-73 19.5v52h5q43 0 63 15q20 16 20 61q0 56 -44 56q-24 0 -33.5 -10.5t-10.5 -33.5z" />
  </font>
</defs>
</svg>
